#N canvas 20 582 476 440 10;
#X floatatom 101 173 5 500 21000 0 - - -, f 5;
#X obj 77 297 *~;
#X obj 77 370 dac~;
#X obj 295 51 bng 15 250 50 0 empty empty empty 17 7 0 10 -262144 -1
-1;
#X obj 296 103 metro 1000;
#X obj 102 233 osc~ 1000, f 11;
#X floatatom 377 148 5 100 5000 0 - - -, f 5;
#X obj 236 274 line~;
#X obj 304 194 delay 500, f 12;
#X floatatom 365 61 10 500 5000 0 - - -, f 10;
#X msg 323 33 stop;
#X msg 310 241 0 20;
#X msg 241 189 0.5 10;
#X msg 65 89 5000;
#X msg 29 93 1000;
#X msg 104 89 10000;
#X msg 148 88 15000;
#X msg 196 89 20000;
#X obj 41 190 noise~;
#X connect 0 0 5 0;
#X connect 1 0 2 1;
#X connect 1 0 2 0;
#X connect 3 0 4 0;
#X connect 4 0 12 0;
#X connect 4 0 8 0;
#X connect 5 0 1 0;
#X connect 6 0 8 1;
#X connect 7 0 1 1;
#X connect 8 0 11 0;
#X connect 9 0 4 1;
#X connect 10 0 4 0;
#X connect 11 0 7 0;
#X connect 12 0 7 0;
#X connect 13 0 0 0;
#X connect 14 0 0 0;
#X connect 15 0 0 0;
#X connect 16 0 0 0;
#X connect 17 0 0 0;
