#N canvas 1412 257 784 491 10;
#X obj 199 19 tgl 50 0 empty empty empty 17 7 0 10 -262144 -1 -1 0
1;
#X msg 5 53 \; pd dsp 0;
#X msg 5 7 \; pd dsp 1;
#X msg 407 272 disconnect;
#X obj 202 306 netsend -u -b;
#X obj 202 241 list prepend send;
#X obj 202 270 list trim;
#X obj 202 213 oscformat amplitude;
#X msg 407 241 connect 127.0.0.1 12000;
#N canvas 115 532 1082 626 track1 0;
#X obj 155 12 inlet;
#X floatatom 101 272 5 0 0 0 - - -, f 5;
#X obj 150 172 readsf~ 2 44100;
#X obj 191 364 dac~;
#X obj 36 279 bng 15 250 50 0 empty empty empty 17 7 0 10 -262144 -1
-1;
#X obj 109 362 f;
#X obj 146 364 + 1;
#X floatatom 121 400 5 0 0 0 - - -, f 5;
#X msg 122 325 0;
#X obj 40 303 spigot;
#X obj 147 121 bng 15 250 50 0 empty empty empty 17 7 0 10 -262144
-1 -1;
#X obj 190 51 select 1;
#X floatatom 281 387 5 0 0 0 - - -, f 5;
#X obj 206 416 select;
#X obj 263 505 outlet;
#X msg 225 115 stop;
#X obj 47 440 tabwrite myarray1;
#X obj 282 354 expr size("myarray1");
#X msg 282 103 \; myarray1 const 0;
#X msg 75 91 open bcl_part1.wav \, 1;
#X obj 91 222 env~ 256 16;
#N canvas 63 49 450 278 (subpatch) 0;
#X array myarray1 1000 float 0;
#X coords 0 100 999 0 1000 70 1 0 0;
#X restore 17 527 graph;
#X connect 0 0 11 0;
#X connect 0 0 8 0;
#X connect 0 0 9 1;
#X connect 0 0 17 0;
#X connect 1 0 16 0;
#X connect 2 0 3 0;
#X connect 2 0 20 0;
#X connect 2 1 3 1;
#X connect 2 2 10 0;
#X connect 4 0 9 0;
#X connect 5 0 6 0;
#X connect 5 0 7 0;
#X connect 5 0 13 0;
#X connect 6 0 5 1;
#X connect 7 0 16 1;
#X connect 8 0 5 1;
#X connect 9 0 5 0;
#X connect 10 0 19 0;
#X connect 11 0 19 0;
#X connect 11 1 15 0;
#X connect 11 1 18 0;
#X connect 12 0 13 1;
#X connect 13 0 8 0;
#X connect 15 0 2 0;
#X connect 17 0 12 0;
#X connect 19 0 2 0;
#X connect 20 0 1 0;
#X connect 20 0 4 0;
#X connect 20 0 14 0;
#X restore 108 139 pd track1;
#N canvas 58 712 1087 663 track2 0;
#X obj 155 12 inlet;
#X floatatom 101 272 5 0 0 0 - - -, f 5;
#X obj 150 172 readsf~ 2 44100;
#X obj 191 364 dac~;
#X obj 36 279 bng 15 250 50 0 empty empty empty 17 7 0 10 -262144 -1
-1;
#X obj 109 362 f;
#X obj 146 364 + 1;
#X floatatom 121 400 5 0 0 0 - - -, f 5;
#X msg 122 325 0;
#X obj 40 303 spigot;
#X obj 147 121 bng 15 250 50 0 empty empty empty 17 7 0 10 -262144
-1 -1;
#X obj 190 51 select 1;
#X floatatom 281 387 5 0 0 0 - - -, f 5;
#X obj 206 416 select;
#X obj 263 505 outlet;
#X msg 225 115 stop;
#X msg 282 102 \; myarray2 const 0;
#X obj 47 440 tabwrite myarray2;
#X obj 282 354 expr size("myarray2");
#X obj 105 219 env~ 256 16;
#X msg 75 91 open bcl_part2BIS.wav \, 1;
#N canvas 63 49 450 278 (subpatch) 0;
#X array myarray2 1000 float 0;
#X coords 0 100 999 0 1000 70 1 0 0;
#X restore 37 536 graph;
#X connect 0 0 11 0;
#X connect 0 0 8 0;
#X connect 0 0 9 1;
#X connect 0 0 18 0;
#X connect 1 0 17 0;
#X connect 2 0 3 0;
#X connect 2 0 19 0;
#X connect 2 1 3 1;
#X connect 2 2 10 0;
#X connect 4 0 9 0;
#X connect 5 0 6 0;
#X connect 5 0 7 0;
#X connect 5 0 13 0;
#X connect 6 0 5 1;
#X connect 7 0 17 1;
#X connect 8 0 5 1;
#X connect 9 0 5 0;
#X connect 10 0 20 0;
#X connect 11 0 20 0;
#X connect 11 1 15 0;
#X connect 11 1 16 0;
#X connect 12 0 13 1;
#X connect 13 0 8 0;
#X connect 15 0 2 0;
#X connect 18 0 12 0;
#X connect 19 0 1 0;
#X connect 19 0 4 0;
#X connect 19 0 14 0;
#X connect 20 0 2 0;
#X restore 202 139 pd track2;
#X msg 107 172 1 \$1;
#X msg 202 168 2 \$1;
#N canvas 523 389 783 506 track3 1;
#X obj 47 12 inlet;
#X obj 220 346 outlet;
#X obj 223 238 tabread myamplitudearray;
#X floatatom 219 289 5 0 0 0 - - -, f 5;
#X obj 200 65 sel 1;
#X floatatom 153 150 5 0 0 0 - - -, f 5;
#X obj 116 39 t f f;
#X msg 67 85 bang;
#X obj 27 235 select;
#X obj 153 125 timer 50 msec;
#X obj 124 75 metro 50;
#X obj 103 207 expr size("myamplitudearray")-1;
#X obj 343 167 bng 15 250 50 0 empty empty empty 17 7 0 10 -262144
-1 -1;
#X obj 343 141 sel 0;
#X text 344 124 0 n'est jamais atteint \, bug a gerer;
#N canvas 0 22 450 278 (subpatch) 0;
#X array myamplitudearray 100 float 1;
#A 0 -1.01429 -0.992857 -0.971429 -0.961905 -0.952381 -0.942857 -0.928571
-0.914286 -0.9 -0.885714 -0.878572 -0.871429 -0.864286 -0.857143 -0.242857
-0.242857 -0.214286 -0.2 -0.128572 -0.100001 -0.0714291 -7.15256e-07
0.0285707 0.057142 0.0928562 0.12857 0.149999 0.171427 0.192856 0.214285
0.214285 0.214285 0.214285 0.214285 0.214285 0.214285 0.214285 0.207142
0.199999 0.192856 0.185713 0.17857 0.171427 0.157142 0.142856 0.12857
0.119047 0.109523 0.0999991 0.0785705 0.057142 0.0428563 0.0285707
0.014285 -0.0095245 -0.033334 -0.0571434 -0.078572 -0.100001 -0.471429
-0.128572 -0.142858 -0.171429 -0.2 -0.214286 -0.228572 -0.242857 -0.261905
-0.280953 -0.3 -0.314286 -0.328571 -0.342857 -0.357143 -0.374286 -0.391428
-0.408571 -0.425714 -0.442857 -0.46 -0.477143 -0.494285 -0.511428 -0.528571
-0.557142 -0.585714 -0.614285 -0.638095 -0.661904 -0.685714 -0.707142
-0.728571 -0.742856 -0.757142 -0.771428 0.857139 0.914282 0.942853
0.942853 0.957139;
#X coords 0 1 99 -1 200 140 1 0 0;
#X restore 462 216 graph;
#X connect 0 0 6 0;
#X connect 0 0 11 0;
#X connect 2 0 3 0;
#X connect 3 0 1 0;
#X connect 4 0 9 0;
#X connect 5 0 2 0;
#X connect 5 0 8 0;
#X connect 5 0 13 0;
#X connect 6 0 10 0;
#X connect 6 1 4 0;
#X connect 7 0 9 0;
#X connect 8 0 7 0;
#X connect 9 0 5 0;
#X connect 10 0 9 1;
#X connect 11 0 8 1;
#X connect 13 0 12 0;
#X restore 307 138 pd track3;
#X msg 307 167 3 \$1;
#X obj 307 107 tgl 15 0 empty empty empty 17 7 0 10 -262144 -1 -1 0
1;
#X obj 202 105 tgl 15 0 empty empty empty 17 7 0 10 -262144 -1 -1 0
1;
#X obj 108 105 tgl 15 0 empty empty empty 17 7 0 10 -262144 -1 -1 0
1;
#X connect 0 0 17 0;
#X connect 0 0 16 0;
#X connect 0 0 15 0;
#X connect 3 0 4 0;
#X connect 5 0 6 0;
#X connect 6 0 4 0;
#X connect 7 0 5 0;
#X connect 8 0 4 0;
#X connect 9 0 11 0;
#X connect 10 0 12 0;
#X connect 11 0 7 0;
#X connect 12 0 7 0;
#X connect 13 0 14 0;
#X connect 14 0 7 0;
#X connect 15 0 13 0;
#X connect 16 0 10 0;
#X connect 17 0 9 0;
